<svg xmlns="http://www.w3.org/2000/svg" width="20" height="20" viewBox="0 0 20 20" fill="none">
  <path d="M17.9792 6.91669L10.9792 13.9375C10.8958 14.0209 10.8056 14.0797 10.7083 14.1142C10.6111 14.1492 10.5069 14.1667 10.3958 14.1667C10.2847 14.1667 10.1806 14.1492 10.0833 14.1142C9.98611 14.0797 9.89583 14.0209 9.8125 13.9375L2.79167 6.91669C2.59722 6.72224 2.5 6.47919 2.5 6.18752C2.5 5.89585 2.60417 5.64585 2.8125 5.43752C3.02083 5.22919 3.26389 5.12502 3.54167 5.12502C3.81944 5.12502 4.0625 5.22919 4.27083 5.43752L10.3958 11.5625L16.5208 5.43752C16.7153 5.24308 16.9547 5.14585 17.2392 5.14585C17.5242 5.14585 17.7708 5.25002 17.9792 5.45835C18.1875 5.66669 18.2917 5.90974 18.2917 6.18752C18.2917 6.4653 18.1875 6.70835 17.9792 6.91669Z" fill="#676767"/>
</svg>