<svg xmlns="http://www.w3.org/2000/svg" width="20" height="20" viewBox="0 0 20 20" fill="none">
  <path d="M10.9376 3.91668L16.4376 9.41668C16.5209 9.50001 16.5801 9.59029 16.6151 9.68751C16.6495 9.78474 16.6667 9.8889 16.6667 10C16.6667 10.1111 16.6495 10.2153 16.6151 10.3125C16.5801 10.4097 16.5209 10.5 16.4376 10.5833L10.9376 16.0833C10.7848 16.2361 10.594 16.3161 10.3651 16.3233C10.1356 16.33 9.93758 16.25 9.77091 16.0833C9.60425 15.9306 9.5173 15.7397 9.51008 15.5108C9.50341 15.2814 9.58341 15.0833 9.75008 14.9167L13.8334 10.8333L4.52091 10.8333C4.2848 10.8333 4.08675 10.7536 3.92675 10.5942C3.7673 10.4342 3.68758 10.2361 3.68758 10C3.68758 9.7639 3.7673 9.56612 3.92675 9.40668C4.08675 9.24668 4.2848 9.16668 4.52091 9.16668L13.8334 9.16668L9.75008 5.08335C9.5973 4.93057 9.5173 4.73612 9.51008 4.50001C9.50341 4.2639 9.58341 4.06946 9.75008 3.91668C9.90286 3.75001 10.0973 3.66668 10.3334 3.66668C10.5695 3.66668 10.7709 3.75001 10.9376 3.91668Z" fill="#2961D5"/>
</svg>