<svg xmlns="http://www.w3.org/2000/svg" width="20" height="20" viewBox="0 0 20 20" fill="none">
  <path d="M9.06242 16.0833L3.56242 10.5833C3.47909 10.5 3.41992 10.4097 3.38492 10.3125C3.35047 10.2153 3.33325 10.1111 3.33325 9.99999C3.33325 9.88888 3.35047 9.78471 3.38492 9.68749C3.41992 9.59026 3.47909 9.49999 3.56242 9.41665L9.06242 3.91665C9.2152 3.76388 9.40603 3.68388 9.63492 3.67665C9.86436 3.66999 10.0624 3.74999 10.2291 3.91665C10.3958 4.06943 10.4827 4.26027 10.4899 4.48915C10.4966 4.7186 10.4166 4.91665 10.2499 5.08332L6.16659 9.16665H15.4791C15.7152 9.16665 15.9133 9.24638 16.0733 9.40582C16.2327 9.56582 16.3124 9.76388 16.3124 9.99999C16.3124 10.2361 16.2327 10.4339 16.0733 10.5933C15.9133 10.7533 15.7152 10.8333 15.4791 10.8333H6.16659L10.2499 14.9167C10.4027 15.0694 10.4827 15.2639 10.4899 15.5C10.4966 15.7361 10.4166 15.9305 10.2499 16.0833C10.0971 16.25 9.9027 16.3333 9.66659 16.3333C9.43047 16.3333 9.22908 16.25 9.06242 16.0833Z" fill="#2961D5"/>
</svg>