<svg xmlns="http://www.w3.org/2000/svg" width="40" height="40" viewBox="0 0 40 40" fill="none">
  <path d="M21.6667 26.6667H18.3334C17.4167 26.6667 16.6667 25.9167 16.6667 25H5.01671V31.6667C5.01671 33.5 6.51671 35 8.35004 35H31.6667C33.5 35 35 33.5 35 31.6667V25H23.3334C23.3334 25.9167 22.5834 26.6667 21.6667 26.6667ZM33.3334 11.6667H26.6667C26.6667 7.98333 23.6834 5 20 5C16.3167 5 13.3334 7.98333 13.3334 11.6667H6.66671C4.83337 11.6667 3.33337 13.1667 3.33337 15V20C3.33337 21.85 4.81671 23.3333 6.66671 23.3333H16.6667V21.6667C16.6667 20.75 17.4167 20 18.3334 20H21.6667C22.5834 20 23.3334 20.75 23.3334 21.6667V23.3333H33.3334C35.1667 23.3333 36.6667 21.8333 36.6667 20V15C36.6667 13.1667 35.1667 11.6667 33.3334 11.6667ZM16.6667 11.6667C16.6667 9.83333 18.1667 8.33333 20 8.33333C21.8334 8.33333 23.3334 9.83333 23.3334 11.6667H16.65H16.6667Z" fill="black"/>
</svg>