<svg xmlns="http://www.w3.org/2000/svg" width="70" height="42" viewBox="0 0 70 42" fill="none">
  <path fill-rule="evenodd" clip-rule="evenodd" d="M35.8049 24.0757C32.5056 23.6666 29.0936 23.5602 25.9013 23.8169C22.7997 24.0659 19.6828 24.6539 16.8192 25.6541C13.9402 26.6598 11.8221 27.92 10.6493 29.2243C9.33493 30.6865 9.09406 32.3272 10.3628 33.8958C10.7179 34.3331 12.2365 35.6732 9.59244 35.3542C7.38618 35.0877 6.19543 34.2007 5.71624 33.166C5.28138 32.226 5.4144 31.1511 5.93495 30.2693C6.89376 28.6541 8.86469 27.2589 11.2884 26.0615C13.5467 24.9464 16.334 23.9651 19.3563 23.2177C20.0299 23.0507 20.7354 22.9098 21.4402 22.7766C17.4139 23.5359 13.6699 24.7069 10.6642 26.1038C7.38788 27.6352 4.702 29.5629 3.49804 31.7853C2.92207 32.8687 2.79246 33.9172 2.99199 34.9254C3.21453 36.0435 3.85062 37.1329 4.83416 38.2543C5.13771 38.6003 6.0637 39.5803 4.28505 39.3532C2.00375 39.0632 0.685539 37.8657 0 36.81C0.590894 38.2262 1.96666 39.3976 3.96658 40.2679C4.98082 40.7014 6.143 41.0627 7.43606 41.3381C8.75171 41.6187 10.2196 41.8207 11.8204 41.933C16.479 42.2597 22.286 41.4034 28.4269 39.1059C36.5804 36.0541 47.2012 29.8683 58.105 18.2566C58.105 18.2566 59.3478 18.8669 60.8668 19.4673C62.3585 20.0695 64.1043 20.6575 65.0623 20.8629C65.0623 20.8629 64.7605 20.5008 64.4156 19.8C64.0515 19.0595 63.6486 17.9282 63.4717 16.4109C63.3135 14.8099 63.4499 12.763 64.2062 10.248C65.1284 7.4487 66.7958 4.03525 69.6334 0C57.8799 8.79606 40.5436 18.0901 35.4639 19.8478C39.6624 19.5719 41.4159 19.3614 47.327 17.7834C39.864 27.1868 31.7663 31.6986 25.4613 33.5059C20.2183 35.0079 15.2737 34.8823 12.3683 33.4448C10.7 32.6202 10.0861 31.3817 10.6702 30.1411C11.3314 28.7733 13.2111 27.4665 15.6216 26.4484C17.7575 25.5473 20.1842 24.9106 22.7012 24.5155C25.2294 24.1188 27.9413 23.9693 30.6169 24.0522C30.6745 23.9655 31.398 23.9399 31.5809 23.9335C32.9895 23.8784 34.4569 23.9591 35.8049 24.0752V24.0757Z" fill="url(#paint0_linear_103_4)"/>
  <path fill-rule="evenodd" clip-rule="evenodd" d="M64.844 8.5142C65.8335 6.07358 67.3567 3.23708 69.6329 0C57.8794 8.79606 40.5431 18.0901 35.4634 19.8478C39.6619 19.5719 41.4154 19.3614 47.3265 17.7834C47.2071 17.9338 47.0881 18.0824 46.9683 18.2301C51.4457 15.482 57.3013 12.2074 64.8444 8.51377L64.844 8.5142Z" fill="url(#paint1_linear_103_4)"/>
  <path d="M12.318 27.0412V16.6061H15.0875V14.1757H12.2925V13.5159C12.2873 12.9778 12.3538 12.4897 12.4898 12.049C12.622 11.6087 12.8463 11.2564 13.1583 10.9916C13.4742 10.7234 13.8967 10.5867 14.4292 10.5829C14.7272 10.5829 14.9911 10.6047 15.2154 10.6529C15.4392 10.6973 15.646 10.7499 15.8259 10.8203L16.0373 8.31053C15.7867 8.22725 15.4874 8.15636 15.1446 8.09059C14.8018 8.02952 14.4156 7.99835 13.9794 7.99365C13.597 7.99365 13.2103 8.03337 12.819 8.11707C12.4238 8.2012 12.0409 8.33273 11.6675 8.51381C11.294 8.69872 10.9512 8.93616 10.6306 9.23595C10.2614 9.59297 9.96213 10.0017 9.73362 10.4727C9.50553 10.9399 9.33841 11.4413 9.23268 11.9785C9.12695 12.5157 9.07451 13.0615 9.07451 13.621V14.1757H7.33423V16.6061H9.07451V27.0412H12.3185H12.318ZM17.1181 27.0412H20.362V8.258H17.1181V27.0412ZM22.3671 14.1757L27.0874 25.9667C27.1535 26.1213 27.1931 26.2486 27.2149 26.3498C27.2375 26.451 27.2464 26.5347 27.2464 26.5962C27.2464 26.6752 27.2328 26.7636 27.2017 26.8563C27.1761 26.9532 27.1275 27.0591 27.0614 27.1774C26.8282 27.6186 26.5553 28.0144 26.2347 28.3715C25.9141 28.7276 25.5927 29.0048 25.2682 29.2076C24.9383 29.4459 24.6126 29.639 24.2924 29.7841C23.976 29.9345 23.6768 30.0395 23.3954 30.1057L24.1342 32.8273C24.4019 32.7915 24.7187 32.7167 25.0794 32.6027C25.4439 32.4831 25.8348 32.3119 26.2573 32.083C26.6743 31.8545 27.101 31.5547 27.5363 31.1896C27.9098 30.8633 28.27 30.4713 28.6175 30.0182C28.965 29.5599 29.3167 29.0099 29.6676 28.3672C30.015 27.7193 30.3804 26.9536 30.7628 26.0598C31.1452 25.1707 31.5536 24.127 31.9932 22.9338L35.2107 14.1766H31.7561L29.7515 21.0321C29.6637 21.3092 29.5806 21.5958 29.4966 21.8905C29.4173 22.1813 29.3384 22.4721 29.2677 22.754C29.1935 23.0401 29.1274 23.3002 29.0656 23.5376H28.9863C28.9253 23.3002 28.855 23.0401 28.7714 22.7582C28.6921 22.4721 28.6034 22.1856 28.5165 21.8947C28.4282 21.6048 28.3357 21.3267 28.2479 21.059L25.9529 14.1766H22.3671V14.1757Z" fill="#58595B"/>
  <defs>
    <linearGradient id="paint0_linear_103_4" x1="-2.19603" y1="46.5866" x2="77.7307" y2="0.519444" gradientUnits="userSpaceOnUse">
      <stop stop-color="#00AEEF"/>
      <stop offset="1" stop-color="#2E3192"/>
    </linearGradient>
    <linearGradient id="paint1_linear_103_4" x1="41.5748" y1="13.6846" x2="67.7636" y2="6.55439" gradientUnits="userSpaceOnUse">
      <stop stop-color="#00AEEF"/>
      <stop offset="1" stop-color="#2E3192"/>
    </linearGradient>
  </defs>
</svg>