<svg xmlns="http://www.w3.org/2000/svg" width="40" height="40" viewBox="0 0 40 40" fill="none">
  <path d="M20 36.6667L19.5833 31.6667H19.1667C15.2222 31.6667 11.875 30.2917 9.125 27.5417C6.375 24.7917 5 21.4445 5 17.5C5 13.5556 6.375 10.2084 9.125 7.45837C11.875 4.70837 15.2222 3.33337 19.1667 3.33337C21.1389 3.33337 22.9789 3.70115 24.6867 4.43671C26.3956 5.17337 27.8961 6.18726 29.1883 7.47837C30.4794 8.7706 31.4928 10.2706 32.2283 11.9784C32.965 13.6873 33.3333 15.5278 33.3333 17.5C33.3333 19.5834 32.9933 21.5834 32.3133 23.5C31.6322 25.4167 30.7017 27.1945 29.5217 28.8334C28.3406 30.4723 26.9378 31.9584 25.3133 33.2917C23.6878 34.625 21.9167 35.75 20 36.6667ZM19.125 26.625C19.5972 26.625 20 26.4584 20.3333 26.125C20.6667 25.7917 20.8333 25.3889 20.8333 24.9167C20.8333 24.4445 20.6667 24.0417 20.3333 23.7084C20 23.375 19.5972 23.2084 19.125 23.2084C18.6528 23.2084 18.25 23.375 17.9167 23.7084C17.5833 24.0417 17.4167 24.4445 17.4167 24.9167C17.4167 25.3889 17.5833 25.7917 17.9167 26.125C18.25 26.4584 18.6528 26.625 19.125 26.625ZM17.9167 21.3334H20.4167C20.4167 20.5 20.5 19.9167 20.6667 19.5834C20.8333 19.25 21.3611 18.6389 22.25 17.75C22.75 17.25 23.1667 16.7084 23.5 16.125C23.8333 15.5417 24 14.9167 24 14.25C24 12.8334 23.5211 11.7706 22.5633 11.0617C21.6044 10.3539 20.4722 10 19.1667 10C17.9444 10 16.9167 10.34 16.0833 11.02C15.25 11.7012 14.6667 12.5278 14.3333 13.5L16.6667 14.4167C16.8056 13.9445 17.0694 13.4789 17.4583 13.02C17.8472 12.5623 18.4167 12.3334 19.1667 12.3334C19.9167 12.3334 20.4794 12.5417 20.855 12.9584C21.2294 13.375 21.4167 13.8334 21.4167 14.3334C21.4167 14.8056 21.2778 15.2289 21 15.6034C20.7222 15.9789 20.3889 16.3612 20 16.75C19.0278 17.5834 18.4378 18.2428 18.23 18.7284C18.0211 19.215 17.9167 20.0834 17.9167 21.3334Z" fill="black"/>
</svg>